# 3ds Max Wavefront OBJ Exporter v0.97b - (c)2007 guruware
# File Created: 25.06.2015 19:49:33

mtllib Airport_PH.mtl

#
# object Airport
#

v  -55.5703 0.0000 100.8325
v  -55.5703 0.0000 -100.8325
v  54.3605 0.0000 -100.8325
v  54.3605 0.0000 100.8325
v  -55.5703 3.1372 100.8325
v  54.3605 3.1372 100.8325
v  54.3605 3.1372 -100.8325
v  -55.5703 3.1372 -100.8325
v  41.4516 0.0000 -55.7954
v  40.8192 0.0000 -58.3611
v  40.8192 21.9594 -58.3611
v  41.4516 21.9594 -55.7954
v  39.0669 0.0000 -60.3391
v  39.0669 21.9594 -60.3391
v  36.5961 0.0000 -61.2761
v  36.5961 21.9594 -61.2761
v  33.9729 0.0000 -60.9576
v  33.9729 21.9594 -60.9576
v  31.7981 0.0000 -59.4565
v  31.7981 21.9594 -59.4565
v  30.5701 0.0000 -57.1167
v  30.5701 21.9594 -57.1167
v  30.5701 0.0000 -54.4742
v  30.5701 21.9594 -54.4742
v  31.7981 0.0000 -52.1344
v  31.7981 21.9594 -52.1344
v  33.9729 0.0000 -50.6332
v  33.9729 21.9594 -50.6332
v  36.5961 0.0000 -50.3147
v  36.5961 21.9594 -50.3147
v  39.0669 0.0000 -51.2518
v  39.0669 21.9594 -51.2518
v  40.8192 0.0000 -53.2297
v  40.8192 21.9594 -53.2297
v  43.0421 21.9594 -59.5278
v  43.9621 21.9594 -55.7954
v  40.4930 21.9594 -62.4052
v  36.8987 21.9594 -63.7683
v  33.0826 21.9594 -63.3050
v  29.9190 21.9594 -61.1213
v  28.1325 21.9594 -57.7175
v  28.1325 21.9594 -53.8734
v  29.9190 21.9594 -50.4696
v  33.0826 21.9594 -48.2859
v  36.8987 21.9594 -47.8225
v  40.4930 21.9594 -49.1857
v  43.0421 21.9594 -52.0630
v  43.0421 32.3706 -59.5278
v  43.9621 32.3706 -55.7954
v  40.4930 32.3706 -62.4052
v  36.8987 32.3706 -63.7683
v  33.0826 32.3706 -63.3050
v  29.9190 32.3706 -61.1213
v  28.1325 32.3706 -57.7175
v  28.1325 32.3706 -53.8734
v  29.9190 32.3706 -50.4696
v  33.0826 32.3706 -48.2859
v  36.8987 32.3706 -47.8225
v  40.4930 32.3706 -49.1857
v  43.0421 32.3706 -52.0630
v  39.7164 34.6815 -57.7824
v  40.2062 34.6815 -55.7954
v  38.3594 34.6815 -59.3141
v  36.4460 34.6815 -60.0398
v  34.4145 34.6815 -59.7931
v  32.7303 34.6815 -58.6306
v  31.7793 34.6815 -56.8186
v  31.7793 34.6815 -54.7722
v  32.7303 34.6815 -52.9602
v  34.4145 34.6815 -51.7977
v  36.4460 34.6815 -51.5510
v  38.3594 34.6815 -52.2767
v  39.7164 34.6815 -53.8085
v  37.1187 36.1572 -56.4190
v  37.2724 36.1572 -55.7954
v  36.6928 36.1572 -56.8997
v  36.0924 36.1572 -57.1274
v  35.4548 36.1572 -57.0500
v  34.9263 36.1572 -56.6852
v  34.6279 36.1572 -56.1165
v  34.6279 36.1572 -55.4743
v  34.9263 36.1572 -54.9057
v  35.4548 36.1572 -54.5409
v  36.0924 36.1572 -54.4635
v  36.6928 36.1572 -54.6912
v  37.1187 36.1572 -55.1719
v  55.5703 5.2822 56.4267
v  47.3003 5.2822 42.1026
v  47.3003 8.1309 42.1026
v  55.5703 8.1309 56.4267
v  30.7602 5.2822 42.1026
v  30.7602 8.1309 42.1026
v  22.4901 5.2822 56.4267
v  22.4901 8.1309 56.4267
v  30.7602 5.2822 70.7509
v  30.7602 8.1309 70.7509
v  47.3003 5.2822 70.7509
v  47.3003 8.1309 70.7509
v  20.3107 1.6727 -99.1853
v  18.7901 8.3351 -99.1853
v  18.7901 8.3351 -50.3751
v  20.3107 1.6727 -50.3751
v  14.5292 13.6780 -99.1853
v  14.5292 13.6780 -50.3751
v  8.3722 16.6431 -99.1853
v  8.3722 16.6431 -50.3751
v  1.5384 16.6431 -99.1853
v  1.5384 16.6431 -50.3751
v  -4.6186 13.6780 -99.1853
v  -4.6186 13.6780 -50.3751
v  -8.8794 8.3351 -99.1853
v  -8.8794 8.3351 -50.3751
v  -10.4000 1.6727 -99.1853
v  -10.4000 1.6727 -50.3751
v  14.9299 7.9249 -50.3751
v  16.0263 3.1214 -50.3751
v  11.8579 11.7770 -50.3751
v  7.4189 13.9148 -50.3751
v  2.4918 13.9148 -50.3751
v  -1.9473 11.7770 -50.3751
v  -5.0192 7.9249 -50.3751
v  -6.1156 3.1214 -50.3751
v  14.9299 7.9249 -55.1104
v  16.0263 3.1214 -55.1104
v  11.8579 11.7770 -55.1104
v  7.4189 13.9148 -55.1104
v  2.4918 13.9148 -55.1104
v  -1.9473 11.7770 -55.1104
v  -5.0192 7.9249 -55.1104
v  -6.1156 3.1214 -55.1104
v  -15.6521 2.1726 -98.9842
v  -17.1602 8.7801 -98.9842
v  -17.1602 8.7801 -50.5763
v  -15.6521 2.1726 -50.5763
v  -21.3859 14.0790 -98.9842
v  -21.3859 14.0790 -50.5763
v  -27.4922 17.0196 -98.9842
v  -27.4922 17.0196 -50.5763
v  -34.2696 17.0196 -98.9842
v  -34.2696 17.0196 -50.5763
v  -40.3759 14.0790 -98.9842
v  -40.3759 14.0790 -50.5763
v  -44.6016 8.7801 -98.9842
v  -44.6016 8.7801 -50.5763
v  -46.1098 2.1726 -98.9842
v  -46.1098 2.1726 -50.5763
v  -20.9885 8.3733 -50.5763
v  -19.9012 3.6094 -50.5763
v  -24.0352 12.1937 -50.5763
v  -28.4377 14.3138 -50.5763
v  -33.3241 14.3138 -50.5763
v  -37.7267 12.1937 -50.5763
v  -40.7733 8.3733 -50.5763
v  -41.8606 3.6094 -50.5763
v  -20.9885 8.3733 -55.2725
v  -19.9012 3.6094 -55.2725
v  -24.0352 12.1937 -55.2725
v  -28.4377 14.3138 -55.2725
v  -33.3241 14.3138 -55.2725
v  -37.7267 12.1937 -55.2725
v  -40.7733 8.3733 -55.2725
v  -41.8606 3.6094 -55.2725
# 162 vertices

vn 0.0000 -1.0000 -0.0000
vn 0.0000 1.0000 -0.0000
vn 0.0000 0.0000 1.0000
vn 1.0000 0.0000 -0.0000
vn 0.0000 0.0000 -1.0000
vn -1.0000 0.0000 -0.0000
vn 1.0000 0.0000 0.0000
vn 0.8855 0.0000 -0.4647
vn 0.5681 0.0000 -0.8230
vn 0.1205 0.0000 -0.9927
vn -0.3546 0.0000 -0.9350
vn -0.7485 0.0000 -0.6631
vn -0.9709 0.0000 -0.2393
vn -0.9709 0.0000 0.2393
vn -0.7485 0.0000 0.6631
vn -0.3546 0.0000 0.9350
vn 0.1205 0.0000 0.9927
vn 0.5681 0.0000 0.8230
vn 0.8855 0.0000 0.4647
vn -0.0000 -1.0000 0.0000
vn 0.0000 -1.0000 0.0000
vn -0.0000 -1.0000 -0.0000
vn 0.9709 0.0000 -0.2393
vn 0.7485 0.0000 -0.6631
vn 0.3546 0.0000 -0.9350
vn -0.1205 0.0000 -0.9927
vn -0.5681 0.0000 -0.8230
vn -0.8855 0.0000 -0.4647
vn -0.8855 0.0000 0.4647
vn -0.5681 0.0000 0.8230
vn -0.1205 0.0000 0.9927
vn 0.3546 0.0000 0.9350
vn 0.7485 0.0000 0.6631
vn 0.9709 0.0000 0.2393
vn 0.5197 0.8447 -0.1281
vn 0.4007 0.8447 -0.3550
vn 0.1898 0.8447 -0.5005
vn -0.0645 0.8447 -0.5314
vn -0.3041 0.8447 -0.4405
vn -0.4740 0.8447 -0.2488
vn -0.5353 0.8447 -0.0000
vn -0.4740 0.8447 0.2488
vn -0.3041 0.8447 0.4405
vn -0.0645 0.8447 0.5314
vn 0.1898 0.8447 0.5005
vn 0.4007 0.8447 0.3550
vn 0.5197 0.8447 0.1281
vn 0.4466 0.8879 -0.1101
vn 0.3443 0.8879 -0.3050
vn 0.1631 0.8879 -0.4301
vn -0.0554 0.8879 -0.4566
vn -0.2613 0.8879 -0.3785
vn -0.4073 0.8879 -0.2138
vn -0.4600 0.8879 -0.0000
vn -0.4073 0.8879 0.2138
vn -0.2613 0.8879 0.3785
vn -0.0554 0.8879 0.4566
vn 0.1631 0.8879 0.4301
vn 0.3443 0.8879 0.3050
vn 0.4466 0.8879 0.1101
vn 0.5000 0.0000 -0.8660
vn -0.5000 0.0000 -0.8660
vn -1.0000 0.0000 0.0000
vn -0.5000 0.0000 0.8660
vn 0.5000 0.0000 0.8660
vn 0.9749 0.2225 0.0000
vn 0.9010 0.4339 0.0000
vn 0.6235 0.7818 0.0000
vn 0.2225 0.9749 -0.0000
vn 0.2225 0.9749 0.0000
vn -0.2225 0.9749 0.0000
vn -0.2225 0.9749 -0.0000
vn -0.6235 0.7818 0.0000
vn -0.9010 0.4339 0.0000
vn -0.9749 0.2225 0.0000
vn -0.9749 -0.2225 -0.0000
vn -0.7818 -0.6235 -0.0000
vn -0.4339 -0.9010 -0.0000
vn 0.4339 -0.9010 -0.0000
vn 0.7818 -0.6235 -0.0000
vn 0.9749 -0.2225 -0.0000
# 81 vertex normals

vt 1.0000 0.0000 0.0000
vt 1.0000 1.0000 0.0000
vt 0.0000 1.0000 0.0000
vt 0.0000 0.0000 0.0000
vt 0.7500 0.0000 1.0000
vt 0.8269 0.0000 1.0000
vt 0.8269 1.0000 1.0000
vt 0.7500 1.0000 1.0000
vt 0.9038 0.0000 1.0000
vt 0.9038 1.0000 1.0000
vt 0.9808 0.0000 1.0000
vt 0.9808 1.0000 1.0000
vt 1.0577 0.0000 1.0000
vt 1.0577 1.0000 1.0000
vt 0.0577 0.0000 1.0000
vt 0.1346 0.0000 1.0000
vt 0.1346 1.0000 1.0000
vt 0.0577 1.0000 1.0000
vt 0.2115 0.0000 1.0000
vt 0.2115 1.0000 1.0000
vt 0.2885 0.0000 1.0000
vt 0.2885 1.0000 1.0000
vt 0.3654 0.0000 1.0000
vt 0.3654 1.0000 1.0000
vt 0.4423 0.0000 1.0000
vt 0.4423 1.0000 1.0000
vt 0.5192 0.0000 1.0000
vt 0.5192 1.0000 1.0000
vt 0.5962 0.0000 1.0000
vt 0.5962 1.0000 1.0000
vt 0.6731 0.0000 1.0000
vt 0.6731 1.0000 1.0000
vt 0.9115 0.7840 -0.2500
vt 0.9964 0.5603 -0.2500
vt 0.9675 0.3227 -0.2500
vt 0.6197 0.0145 -0.2500
vt 0.8316 0.1257 -0.2500
vt 0.3803 0.0145 -0.2500
vt 0.1684 0.1257 -0.2500
vt 0.0036 0.5603 -0.2500
vt 0.0325 0.3227 -0.2500
vt 0.2676 0.9427 -0.2500
vt 0.0885 0.7840 -0.2500
vt 0.5000 1.0000 -0.2500
vt 0.7324 0.9427 -0.2500
vt 0.9167 0.0000 1.0000
vt 0.9167 1.0000 1.0000
vt 1.0833 0.0000 1.0000
vt 1.0833 1.0000 1.0000
vt 0.0833 0.0000 1.0000
vt 0.2500 0.0000 1.0000
vt 0.2500 1.0000 1.0000
vt 0.0833 1.0000 1.0000
vt 0.4167 0.0000 1.0000
vt 0.4167 1.0000 1.0000
vt 0.5833 0.0000 1.0000
vt 0.5833 1.0000 1.0000
vt 0.9330 0.2500 -0.2500
vt 0.5000 0.0000 -0.2500
vt 0.0670 0.2500 -0.2500
vt 0.0670 0.7500 -0.2500
vt 0.9330 0.7500 -0.2500
vt 0.0670 0.7500 0.2500
vt 0.0670 0.2500 0.2500
vt 0.5000 0.0000 0.2500
vt 0.9330 0.7500 0.2500
vt 0.9330 0.2500 0.2500
vt 0.5000 1.0000 0.2500
vt 0.8214 0.0000 1.0000
vt 0.8214 1.0000 1.0000
vt 0.8929 0.0000 1.0000
vt 0.8929 1.0000 1.0000
vt 0.9643 0.0000 1.0000
vt 0.9643 1.0000 1.0000
vt 1.0357 0.0000 1.0000
vt 1.0357 1.0000 1.0000
vt 0.0357 0.0000 1.0000
vt 0.1071 0.0000 1.0000
vt 0.1071 1.0000 1.0000
vt 0.0357 1.0000 1.0000
vt 0.1786 0.0000 1.0000
vt 0.1786 1.0000 1.0000
# 82 texture coords

g Airport
usemtl Standard
s 2
f 1/1/1 2/2/1 3/3/1 4/4/1 
s 4
f 5/4/2 6/1/2 7/2/2 8/3/2 
s 8
f 1/4/3 4/1/3 6/2/3 5/3/3 
s 16
f 4/4/4 3/1/4 7/2/4 6/3/4 
s 32
f 3/4/5 2/1/5 8/2/5 7/3/5 
s 64
f 2/4/6 1/1/6 5/2/6 8/3/6 
s 8
f 9/5/7 10/6/8 11/7/8 12/8/7 
f 10/6/8 13/9/9 14/10/9 11/7/8 
f 13/9/9 15/11/10 16/12/10 14/10/9 
f 15/11/10 17/13/11 18/14/11 16/12/10 
f 17/15/11 19/16/12 20/17/12 18/18/11 
f 19/16/12 21/19/13 22/20/13 20/17/12 
f 21/19/13 23/21/14 24/22/14 22/20/13 
f 23/21/14 25/23/15 26/24/15 24/22/14 
f 25/23/15 27/25/16 28/26/16 26/24/15 
f 27/25/16 29/27/17 30/28/17 28/26/16 
f 29/27/17 31/29/18 32/30/18 30/28/17 
f 31/29/18 33/31/19 34/32/19 32/30/18 
f 33/31/19 9/5/7 12/8/7 34/32/19 
s 1
f 31/33/1 29/34/1 27/35/1 23/36/1 
f 27/35/1 25/37/1 23/36/1 
f 23/36/1 21/38/1 19/39/1 15/40/1 
f 19/39/1 17/41/1 15/40/1 
f 31/33/1 23/36/1 15/40/1 10/42/1 
f 15/40/1 13/43/1 10/42/1 
f 31/33/1 10/42/1 9/44/1 33/45/1 
s off
f 12/8/20 11/7/20 35/7/20 36/8/20 
f 11/7/20 14/10/20 37/10/20 35/7/20 
f 14/10/20 16/12/20 38/12/20 37/10/20 
f 16/12/21 18/14/21 39/14/21 38/12/21 
f 18/18/21 20/17/21 40/17/21 39/18/21 
f 20/17/21 22/20/21 41/20/21 40/17/21 
f 22/20/1 24/22/1 42/22/1 41/20/1 
f 24/22/1 26/24/1 43/24/1 42/22/1 
f 26/24/1 28/26/1 44/26/1 43/24/1 
f 28/26/1 30/28/1 45/28/1 44/26/1 
f 30/28/22 32/30/22 46/30/22 45/28/22 
f 32/30/22 34/32/22 47/32/22 46/30/22 
f 34/32/22 12/8/22 36/8/22 47/32/22 
usemtl Team_Color
f 36/8/23 35/7/23 48/7/23 49/8/23 
f 35/7/24 37/10/24 50/10/24 48/7/24 
f 37/10/25 38/12/25 51/12/25 50/10/25 
f 38/12/26 39/14/26 52/14/26 51/12/26 
f 39/18/27 40/17/27 53/17/27 52/18/27 
f 40/17/28 41/20/28 54/20/28 53/17/28 
f 41/20/6 42/22/6 55/22/6 54/20/6 
f 42/22/29 43/24/29 56/24/29 55/22/29 
f 43/24/30 44/26/30 57/26/30 56/24/30 
f 44/26/31 45/28/31 58/28/31 57/26/31 
f 45/28/32 46/30/32 59/30/32 58/28/32 
f 46/30/33 47/32/33 60/32/33 59/30/33 
f 47/32/34 36/8/34 49/8/34 60/32/34 
usemtl Standard
f 49/8/35 48/7/35 61/7/35 62/8/35 
f 48/7/36 50/10/36 63/10/36 61/7/36 
f 50/10/37 51/12/37 64/12/37 63/10/37 
f 51/12/38 52/14/38 65/14/38 64/12/38 
f 52/18/39 53/17/39 66/17/39 65/18/39 
f 53/17/40 54/20/40 67/20/40 66/17/40 
f 54/20/41 55/22/41 68/22/41 67/20/41 
f 55/22/42 56/24/42 69/24/42 68/22/42 
f 56/24/43 57/26/43 70/26/43 69/24/43 
f 57/26/44 58/28/44 71/28/44 70/26/44 
f 58/28/45 59/30/45 72/30/45 71/28/45 
f 59/30/46 60/32/46 73/32/46 72/30/46 
f 60/32/47 49/8/47 62/8/47 73/32/47 
f 62/8/48 61/7/48 74/7/48 75/8/48 
f 61/7/49 63/10/49 76/10/49 74/7/49 
f 63/10/50 64/12/50 77/12/50 76/10/50 
f 64/12/51 65/14/51 78/14/51 77/12/51 
f 65/18/52 66/17/52 79/17/52 78/18/52 
f 66/17/53 67/20/53 80/20/53 79/17/53 
f 67/20/54 68/22/54 81/22/54 80/20/54 
f 68/22/55 69/24/55 82/24/55 81/22/55 
f 69/24/56 70/26/56 83/26/56 82/24/56 
f 70/26/57 71/28/57 84/28/57 83/26/57 
f 71/28/58 72/30/58 85/30/58 84/28/58 
f 72/30/59 73/32/59 86/32/59 85/30/59 
f 73/32/60 62/8/60 75/8/60 86/32/60 
f 76/10/2 77/12/2 78/14/2 80/20/2 
f 78/14/2 79/17/2 80/20/2 
f 80/20/2 81/22/2 82/24/2 84/28/2 
f 82/24/2 83/26/2 84/28/2 
f 76/10/2 80/20/2 84/28/2 86/32/2 
f 84/28/2 85/30/2 86/32/2 
f 76/10/2 86/32/2 75/8/2 74/7/2 
usemtl Team_Color
s 8
f 87/5/4 88/46/61 89/47/61 90/8/4 
f 88/46/61 91/48/62 92/49/62 89/47/61 
f 91/50/62 93/51/63 94/52/63 92/53/62 
f 93/51/63 95/54/64 96/55/64 94/52/63 
f 95/54/64 97/56/65 98/57/65 96/55/64 
f 97/56/65 87/5/4 90/8/4 98/57/65 
usemtl Standard
s 1
f 95/58/1 93/59/1 91/60/1 87/44/1 
f 91/60/1 88/61/1 87/44/1 
f 97/62/1 95/58/1 87/44/1 
f 89/63/2 92/64/2 94/65/2 98/66/2 
f 94/65/2 96/67/2 98/66/2 
f 90/68/2 89/63/2 98/66/2 
s 8
f 99/5/66 100/69/67 101/70/67 102/8/66 
f 100/69/67 103/71/68 104/72/68 101/70/67 
f 103/71/68 105/73/69 106/74/70 104/72/68 
usemtl Team_Color
f 105/73/69 107/75/71 108/76/72 106/74/70 
usemtl Standard
f 107/77/71 109/78/73 110/79/73 108/80/72 
f 109/78/73 111/81/74 112/82/74 110/79/73 
f 111/81/74 113/51/75 114/52/75 112/82/74 
s 1
f 113/51/22 99/5/22 102/8/22 114/52/22 
s off
f 113/51/5 111/81/5 109/78/5 100/69/5 
f 109/78/5 107/77/5 105/73/5 100/69/5 
f 105/73/5 103/71/5 100/69/5 
f 99/5/5 113/51/5 100/69/5 
f 102/8/3 101/70/3 115/70/3 116/8/3 
f 101/70/3 104/72/3 117/72/3 115/70/3 
f 104/72/3 106/74/3 118/74/3 117/72/3 
f 106/74/3 108/76/3 119/76/3 118/74/3 
f 108/80/3 110/79/3 120/79/3 119/80/3 
f 110/79/3 112/82/3 121/82/3 120/79/3 
f 112/82/3 114/52/3 122/52/3 121/82/3 
f 114/52/3 102/8/3 116/8/3 122/52/3 
f 116/8/76 115/70/76 123/70/76 124/8/76 
f 115/70/77 117/72/77 125/72/77 123/70/77 
f 117/72/78 118/74/78 126/74/78 125/72/78 
f 118/74/1 119/76/1 127/76/1 126/74/1 
f 119/80/79 120/79/79 128/79/79 127/80/79 
f 120/79/80 121/82/80 129/82/80 128/79/80 
f 121/82/81 122/52/81 130/52/81 129/82/81 
f 122/52/2 116/8/2 124/8/2 130/52/2 
f 125/72/3 126/74/3 127/76/3 124/8/3 
f 127/76/3 128/79/3 129/82/3 124/8/3 
f 129/82/3 130/52/3 124/8/3 
f 123/70/3 125/72/3 124/8/3 
s 8
f 131/5/66 132/69/67 133/70/67 134/8/66 
f 132/69/67 135/71/68 136/72/68 133/70/67 
f 135/71/68 137/73/69 138/74/70 136/72/68 
usemtl Team_Color
f 137/73/69 139/75/71 140/76/72 138/74/70 
usemtl Standard
f 139/77/71 141/78/73 142/79/73 140/80/72 
f 141/78/73 143/81/74 144/82/74 142/79/73 
f 143/81/74 145/51/75 146/52/75 144/82/74 
s 1
f 145/51/22 131/5/22 134/8/22 146/52/22 
s off
f 145/51/5 143/81/5 141/78/5 132/69/5 
f 141/78/5 139/77/5 137/73/5 132/69/5 
f 137/73/5 135/71/5 132/69/5 
f 131/5/5 145/51/5 132/69/5 
f 134/8/3 133/70/3 147/70/3 148/8/3 
f 133/70/3 136/72/3 149/72/3 147/70/3 
f 136/72/3 138/74/3 150/74/3 149/72/3 
f 138/74/3 140/76/3 151/76/3 150/74/3 
f 140/80/3 142/79/3 152/79/3 151/80/3 
f 142/79/3 144/82/3 153/82/3 152/79/3 
f 144/82/3 146/52/3 154/52/3 153/82/3 
f 146/52/3 134/8/3 148/8/3 154/52/3 
f 148/8/76 147/70/76 155/70/76 156/8/76 
f 147/70/77 149/72/77 157/72/77 155/70/77 
f 149/72/78 150/74/78 158/74/78 157/72/78 
f 150/74/1 151/76/1 159/76/1 158/74/1 
f 151/80/79 152/79/79 160/79/79 159/80/79 
f 152/79/80 153/82/80 161/82/80 160/79/80 
f 153/82/81 154/52/81 162/52/81 161/82/81 
f 154/52/2 148/8/2 156/8/2 162/52/2 
f 157/72/3 158/74/3 159/76/3 156/8/3 
f 159/76/3 160/79/3 161/82/3 156/8/3 
f 161/82/3 162/52/3 156/8/3 
f 155/70/3 157/72/3 156/8/3 
# 143 polygons - 18 triangles

