# 3ds Max Wavefront OBJ Exporter v0.97b - (c)2007 guruware
# File Created: 25.06.2015 19:42:07

mtllib Resource_Building_PH.mtl

#
# object Resource_Building_PH
#

v  16.3499 0.3244 55.8334
v  16.3499 0.3244 23.3854
v  18.6019 0.3244 23.3854
v  18.6019 0.3244 55.8334
v  16.3499 3.4616 -55.8334
v  16.3499 3.4616 23.3854
v  18.6019 3.4616 23.3854
v  18.6019 3.4616 -55.8334
v  44.5447 0.3244 23.3854
v  44.5447 3.4616 23.3854
v  44.5447 3.4616 55.8334
v  44.5447 0.3244 55.8334
v  16.3499 0.3244 -55.8334
v  18.6019 0.3244 -55.8334
v  -44.5447 0.3244 23.3854
v  -44.5447 3.4616 23.3854
v  -44.5447 3.4616 -55.8334
v  -44.5447 0.3244 -55.8334
v  -16.6202 0.3244 55.8334
v  -16.6202 1.0666 55.8334
v  -18.6019 3.4616 55.8334
v  -18.6019 0.3244 55.8334
v  -44.5447 0.3244 55.8334
v  -18.6019 0.3244 23.3854
v  44.5447 0.3244 -55.8334
v  -18.6019 3.4616 23.3854
v  -18.6019 3.4616 -55.8334
v  18.6019 3.4616 55.8334
v  -18.6019 0.3244 -55.8334
v  44.5447 3.4616 -55.8334
v  -44.5447 3.4616 55.8334
v  -16.6202 0.3244 -55.8334
v  -16.6202 0.3244 23.3854
v  -16.6202 3.4616 23.3854
v  -16.6202 3.4616 -55.8334
v  16.3499 1.0666 55.8334
v  39.5105 1.3048 -51.2789
v  35.6515 14.2384 -51.2789
v  35.6515 14.2384 20.2487
v  39.5105 1.3048 20.2487
v  24.8387 24.6105 -51.2789
v  24.8387 24.6105 20.2487
v  9.2138 30.3665 -51.2789
v  9.2138 30.3665 20.2487
v  -8.1286 30.3665 -51.2789
v  -8.1286 30.3665 20.2487
v  -23.7534 24.6105 -51.2789
v  -23.7534 24.6105 20.2487
v  -34.5662 14.2384 -51.2789
v  -34.5662 14.2384 20.2487
v  -38.4253 1.3048 -51.2789
v  -38.4253 1.3048 20.2487
v  25.8554 13.4421 20.2487
v  28.6377 4.1172 20.2487
v  18.0596 20.9202 20.2487
v  6.7944 25.0701 20.2487
v  -5.7091 25.0701 20.2487
v  -16.9744 20.9202 20.2487
v  -24.7702 13.4421 20.2487
v  -27.5525 4.1172 20.2487
v  25.8554 13.4421 13.3095
v  28.6377 4.1172 13.3095
v  18.0596 20.9202 13.3095
v  6.7944 25.0701 13.3095
v  -5.7091 25.0701 13.3095
v  -16.9744 20.9202 13.3095
v  -24.7702 13.4421 13.3095
v  -27.5525 4.1172 13.3095
v  31.4337 4.3909 31.7978
v  32.3159 4.3909 35.5717
v  29.2514 4.3909 36.2881
v  28.3692 4.3909 32.5142
v  31.4337 9.7070 31.7978
v  28.3692 9.7070 32.5142
v  29.2514 9.7070 36.2881
v  32.3159 9.7070 35.5717
v  37.2214 4.3909 33.7848
v  34.4816 4.3909 36.5259
v  32.2557 4.3909 34.3011
v  34.9956 4.3909 31.5600
v  37.2214 9.7070 33.7848
v  34.9956 9.7070 31.5600
v  32.2557 9.7070 34.3011
v  34.4816 9.7070 36.5259
v  28.9133 3.2863 37.3125
v  32.6389 3.2863 38.3803
v  31.7717 3.2863 41.4057
v  28.0462 3.2863 40.3378
v  28.9133 8.6024 37.3125
v  28.0462 8.6024 40.3378
v  31.7717 8.6024 41.4057
v  32.6389 8.6024 38.3803
# 92 vertices

vn 0.0000 -1.0000 -0.0000
vn 0.0000 1.0000 -0.0000
vn -0.0117 0.9997 0.0192
vn 1.0000 0.0000 0.0000
vn -0.0000 0.0000 -1.0000
vn -1.0000 0.0000 0.0000
vn 0.0000 0.0000 1.0000
vn -0.3818 0.9239 0.0265
vn 0.4119 0.9109 0.0252
vn 0.4173 0.9063 0.0669
vn 0.0117 0.9997 0.0191
vn 1.0000 0.0000 -0.0000
vn -0.3893 0.9186 0.0678
vn 0.9583 0.2859 -0.0000
vn 0.8535 0.5211 -0.0000
vn 0.5302 0.8479 0.0000
vn 0.1756 0.9845 0.0000
vn -0.1756 0.9845 0.0000
vn -0.5302 0.8479 0.0000
vn -0.8535 0.5211 0.0000
vn -0.9583 0.2859 0.0000
vn -0.0000 -1.0000 -0.0000
vn 0.0000 0.0000 -1.0000
vn -0.9583 -0.2859 0.0000
vn -0.6922 -0.7217 0.0000
vn -0.3457 -0.9384 0.0000
vn 0.3457 -0.9384 -0.0000
vn 0.6922 -0.7217 -0.0000
vn 0.9583 -0.2859 -0.0000
vn -0.2276 0.0000 -0.9737
vn -0.9737 0.0000 0.2276
vn 0.2276 0.0000 0.9737
vn 0.9737 0.0000 -0.2276
vn 0.7069 0.0000 -0.7073
vn -0.7073 0.0000 -0.7069
vn -0.7069 0.0000 0.7073
vn 0.7073 0.0000 0.7069
vn -0.9613 0.0000 -0.2755
vn -0.2755 0.0000 0.9613
vn 0.9613 0.0000 0.2755
vn 0.2755 0.0000 -0.9613
# 41 vertex normals

vt 1.0000 0.3165 0.0000
vt 0.7094 0.3165 0.0000
vt 0.7094 0.2912 0.0000
vt 1.0000 0.2912 0.0000
vt 0.2906 0.3165 0.0000
vt 0.2906 0.2912 0.0000
vt 0.2906 0.0000 0.0000
vt 0.2906 1.0000 0.0000
vt 0.0000 1.0000 0.0000
vt 0.0000 0.0000 0.0000
vt 0.3165 0.0000 0.0000
vt 0.3165 1.0000 0.0000
vt 0.2912 1.0000 0.0000
vt 0.2912 0.0000 0.0000
vt 0.7094 0.0000 0.0000
vt 0.7094 1.0000 0.0000
vt 0.3134 0.0000 0.0000
vt 0.3134 1.0000 0.0000
vt 1.0000 1.0000 0.0000
vt 0.7094 0.7088 0.0000
vt 1.0000 0.7088 0.0000
vt 0.0000 0.2912 0.0000
vt 0.2906 0.7088 0.0000
vt 1.0000 0.0000 0.0000
vt 0.7088 1.0000 0.0000
vt 0.7088 0.0000 0.0000
vt 0.0000 0.7088 0.0000
vt 0.0000 0.6866 0.0000
vt 0.7094 0.6866 0.0000
vt 0.2906 0.6866 0.0000
vt 1.0000 0.6866 0.0000
vt 0.6866 1.0000 0.0000
vt 0.6866 0.0000 0.0000
vt 0.6835 0.0000 0.0000
vt 0.6835 1.0000 0.0000
vt 0.0000 0.3165 0.0000
vt 0.7500 0.0000 1.0000
vt 0.8214 0.0000 1.0000
vt 0.8214 1.0000 1.0000
vt 0.7500 1.0000 1.0000
vt 0.8929 0.0000 1.0000
vt 0.8929 1.0000 1.0000
vt 0.9643 0.0000 1.0000
vt 0.9643 1.0000 1.0000
vt 1.0357 0.0000 1.0000
vt 1.0357 1.0000 1.0000
vt 0.0357 0.0000 1.0000
vt 0.1071 0.0000 1.0000
vt 0.1071 1.0000 1.0000
vt 0.0357 1.0000 1.0000
vt 0.1786 0.0000 1.0000
vt 0.1786 1.0000 1.0000
vt 0.2500 0.0000 1.0000
vt 0.2500 1.0000 1.0000
# 54 texture coords

g Resource_Building_PH
usemtl Material__95
s 2
f 1/1/1 2/2/1 3/3/1 4/4/1 
usemtl Material__94
s 4
f 5/1/2 6/5/3 7/6/2 8/4/2 
usemtl Material__98
s 8
f 9/7/4 10/8/4 11/9/4 12/10/4 
usemtl Material__97
s 16
f 13/11/5 5/12/5 8/13/5 14/14/5 
usemtl Material__99
s 32
f 15/15/6 16/16/6 17/9/6 18/10/6 
usemtl Material__96
s 64
f 19/17/7 20/18/7 21/13/7 22/14/7 
usemtl Material__95
s 2
f 23/19/1 15/16/1 24/20/1 22/21/1 
f 25/10/1 9/15/1 3/3/1 14/22/1 
usemtl Material__94
s 4
f 17/19/2 16/8/2 26/23/2 27/21/2 
f 11/10/2 10/7/2 7/6/2 28/22/8 
usemtl Material__97
s 16
f 18/24/5 17/19/5 27/25/5 29/26/5 
f 30/9/5 25/10/5 14/14/5 8/13/5 
usemtl Material__96
s 64
f 12/24/7 11/19/7 28/25/7 4/26/7 
f 31/9/7 23/10/7 22/14/7 21/13/7 
usemtl Material__95
s 2
f 29/27/1 32/28/1 33/29/1 24/20/1 
usemtl Material__94
s 4
f 21/27/9 20/28/10 34/30/11 26/23/2 
usemtl Material__98
s 8
f 25/24/12 30/19/12 10/8/4 9/7/4 
usemtl Material__99
s 32
f 23/24/6 31/19/6 16/16/6 15/15/6 
usemtl Material__95
s 2
f 18/9/1 29/27/1 24/20/1 15/16/1 
f 12/24/1 4/4/1 3/3/1 9/15/1 
usemtl Material__94
s 4
f 31/9/2 21/27/9 26/23/2 16/8/2 
f 30/24/2 8/4/2 7/6/2 10/7/2 
usemtl Material__95
s 2
f 22/21/1 24/20/1 33/29/1 19/31/1 
usemtl Material__94
s 4
f 27/21/2 26/23/2 34/30/11 35/31/2 
usemtl Material__97
s 16
f 29/26/5 27/25/5 35/32/5 32/33/5 
usemtl Material__96
s 64
f 1/34/7 36/35/7 20/18/7 19/17/7 
usemtl Material__95
s 2
f 13/36/1 2/2/1 33/29/1 32/28/1 
usemtl Material__94
s 4
f 36/36/13 6/5/3 34/30/11 20/28/10 
usemtl Material__95
s 2
f 19/31/1 33/29/1 2/2/1 1/1/1 
usemtl Material__94
s 4
f 35/31/2 34/30/11 6/5/3 5/1/2 
usemtl Material__97
s 16
f 32/33/5 35/32/5 5/12/5 13/11/5 
usemtl Material__96
s 64
f 4/26/7 28/25/7 36/35/7 1/34/7 
usemtl Material__95
s 2
f 14/22/1 3/3/1 2/2/1 13/36/1 
usemtl Material__94
s 4
f 28/22/8 7/6/2 6/5/3 36/36/13 
usemtl Material__96
s 8
f 37/37/14 38/38/15 39/39/15 40/40/14 
f 38/38/15 41/41/16 42/42/16 39/39/15 
usemtl Team_Color
f 41/41/16 43/43/17 44/44/17 42/42/16 
usemtl Material__96
f 43/43/17 45/45/18 46/46/18 44/44/17 
usemtl Team_Color
f 45/47/18 47/48/19 48/49/19 46/50/18 
usemtl Material__96
f 47/48/19 49/51/20 50/52/20 48/49/19 
f 49/51/20 51/53/21 52/54/21 50/52/20 
s 1
f 51/53/22 37/37/22 40/40/22 52/54/22 
s off
f 51/53/5 49/51/5 47/48/5 38/38/5 
f 47/48/5 45/47/5 43/43/5 38/38/5 
f 43/43/5 41/41/5 38/38/5 
f 37/37/23 51/53/23 38/38/23 
usemtl Material__94
f 40/40/7 39/39/7 53/39/7 54/40/7 
f 39/39/7 42/42/7 55/42/7 53/39/7 
f 42/42/7 44/44/7 56/44/7 55/42/7 
f 44/44/7 46/46/7 57/46/7 56/44/7 
f 46/50/7 48/49/7 58/49/7 57/50/7 
f 48/49/7 50/52/7 59/52/7 58/49/7 
f 50/52/7 52/54/7 60/54/7 59/52/7 
f 52/54/7 40/40/7 54/40/7 60/54/7 
f 54/40/24 53/39/24 61/39/24 62/40/24 
f 53/39/25 55/42/25 63/42/25 61/39/25 
f 55/42/26 56/44/26 64/44/26 63/42/26 
f 56/44/1 57/46/1 65/46/1 64/44/1 
f 57/50/27 58/49/27 66/49/27 65/50/27 
f 58/49/28 59/52/28 67/52/28 66/49/28 
f 59/52/29 60/54/29 68/54/29 67/52/29 
f 60/54/2 54/40/2 62/40/2 68/54/2 
f 63/42/7 64/44/7 65/46/7 62/40/7 
f 65/46/7 66/49/7 67/52/7 62/40/7 
f 67/52/7 68/54/7 62/40/7 
f 61/39/7 63/42/7 62/40/7 
usemtl Material__95
s 2
f 69/24/1 70/19/1 71/9/1 72/10/1 
usemtl Material__94
s 4
f 73/10/2 74/24/2 75/19/2 76/9/2 
usemtl Material__98
s 8
f 69/10/30 72/24/30 74/19/30 73/9/30 
usemtl Material__97
s 16
f 72/10/31 71/24/31 75/19/31 74/9/31 
usemtl Material__99
s 32
f 71/10/32 70/24/32 76/19/32 75/9/32 
usemtl Material__96
s 64
f 70/10/33 69/24/33 73/19/33 76/9/33 
usemtl Material__95
s 2
f 77/24/1 78/19/1 79/9/1 80/10/1 
usemtl Material__94
s 4
f 81/10/2 82/24/2 83/19/2 84/9/2 
usemtl Material__98
s 8
f 77/10/34 80/24/34 82/19/34 81/9/34 
usemtl Material__97
s 16
f 80/10/35 79/24/35 83/19/35 82/9/35 
usemtl Material__99
s 32
f 79/10/36 78/24/36 84/19/36 83/9/36 
usemtl Material__96
s 64
f 78/10/37 77/24/37 81/19/37 84/9/37 
usemtl Material__95
s 2
f 85/24/1 86/19/1 87/9/1 88/10/1 
usemtl Material__94
s 4
f 89/10/2 90/24/2 91/19/2 92/9/2 
usemtl Material__98
s 8
f 85/10/38 88/24/38 90/19/38 89/9/38 
usemtl Material__97
s 16
f 88/10/39 87/24/39 91/19/39 90/9/39 
usemtl Material__99
s 32
f 87/10/40 86/24/40 92/19/40 91/9/40 
usemtl Material__96
s 64
f 86/10/41 85/24/41 89/19/41 92/9/41 
# 80 polygons - 4 triangles

