# 3ds Max Wavefront OBJ Exporter v0.97b - (c)2007 guruware
# File Created: 25.06.2015 19:48:15

mtllib Barracks_PH.mtl

#
# object Barracks
#

v  -0.8985 2.7931 -35.7149
v  -3.0707 12.3103 -35.7149
v  -3.0707 12.3103 34.0096
v  -0.8985 2.7931 34.0096
v  -9.1572 19.9425 -35.7149
v  -9.1572 19.9425 34.0096
v  -17.9523 24.1780 -35.7149
v  -17.9523 24.1780 34.0096
v  -27.7143 24.1780 -35.7149
v  -27.7143 24.1780 34.0096
v  -36.5095 19.9425 -35.7149
v  -36.5095 19.9425 34.0096
v  -42.5959 12.3103 -35.7149
v  -42.5959 12.3103 34.0096
v  -44.7682 2.7931 -35.7149
v  -44.7682 2.7931 34.0096
v  -8.5849 11.7244 34.0096
v  -7.0187 4.8627 34.0096
v  -12.9731 17.2270 34.0096
v  -19.3142 20.2807 34.0096
v  -26.3524 20.2807 34.0096
v  -32.6936 17.2270 34.0096
v  -37.0818 11.7244 34.0096
v  -38.6479 4.8627 34.0096
v  -8.5849 11.7244 27.2453
v  -7.0187 4.8627 27.2453
v  -12.9731 17.2270 27.2453
v  -19.3142 20.2807 27.2453
v  -26.3524 20.2807 27.2453
v  -32.6936 17.2270 27.2453
v  -37.0818 11.7244 27.2453
v  -38.6479 4.8627 27.2453
v  44.6734 2.7931 -35.7149
v  42.5012 12.3103 -35.7149
v  42.5012 12.3103 34.0095
v  44.6734 2.7931 34.0095
v  36.4147 19.9425 -35.7149
v  36.4147 19.9425 34.0095
v  27.6195 24.1780 -35.7149
v  27.6195 24.1780 34.0095
v  17.8576 24.1780 -35.7149
v  17.8576 24.1780 34.0095
v  9.0624 19.9425 -35.7149
v  9.0624 19.9425 34.0095
v  2.9760 12.3103 -35.7149
v  2.9760 12.3103 34.0095
v  0.8037 2.7931 -35.7149
v  0.8037 2.7931 34.0095
v  36.9870 11.7244 34.0095
v  38.5532 4.8627 34.0095
v  32.5988 17.2270 34.0095
v  26.2576 20.2807 34.0095
v  19.2195 20.2807 34.0095
v  12.8783 17.2270 34.0095
v  8.4901 11.7244 34.0095
v  6.9240 4.8627 34.0095
v  36.9870 11.7244 27.2453
v  38.5532 4.8627 27.2453
v  32.5988 17.2270 27.2453
v  26.2576 20.2807 27.2453
v  19.2195 20.2807 27.2453
v  12.8783 17.2270 27.2453
v  8.4901 11.7244 27.2453
v  6.9240 4.8627 27.2453
v  -46.2534 -0.1518 39.5750
v  -46.2534 -0.1518 -39.5750
v  46.2534 -0.1518 -39.5750
v  46.2534 -0.1518 39.5750
v  -46.2534 3.2890 39.5750
v  46.2534 3.2890 39.5750
v  46.2534 3.2890 -39.5750
v  -46.2534 3.2890 -39.5750
# 72 vertices

vn 0.9749 0.2225 0.0000
vn 0.9010 0.4339 0.0000
vn 0.6235 0.7818 0.0000
vn 0.2225 0.9749 0.0000
vn -0.2225 0.9749 0.0000
vn -0.6235 0.7818 0.0000
vn -0.9010 0.4339 0.0000
vn -0.9749 0.2225 0.0000
vn -0.0000 -1.0000 -0.0000
vn 0.0000 0.0000 -1.0000
vn -0.0000 -0.0000 -1.0000
vn 0.0000 0.0000 1.0000
vn -0.9749 -0.2225 -0.0000
vn -0.7818 -0.6235 -0.0000
vn -0.4339 -0.9010 -0.0000
vn 0.0000 -1.0000 -0.0000
vn 0.4339 -0.9010 -0.0000
vn 0.7818 -0.6235 -0.0000
vn 0.9749 -0.2225 -0.0000
vn 0.0000 1.0000 -0.0000
vn 1.0000 0.0000 -0.0000
vn -1.0000 0.0000 -0.0000
# 22 vertex normals

vt 0.7500 0.0000 1.0000
vt 0.8214 0.0000 1.0000
vt 0.8214 1.0000 1.0000
vt 0.7500 1.0000 1.0000
vt 0.8929 0.0000 1.0000
vt 0.8929 1.0000 1.0000
vt 0.9643 0.0000 1.0000
vt 0.9643 1.0000 1.0000
vt 1.0357 0.0000 1.0000
vt 1.0357 1.0000 1.0000
vt 0.0357 0.0000 1.0000
vt 0.1071 0.0000 1.0000
vt 0.1071 1.0000 1.0000
vt 0.0357 1.0000 1.0000
vt 0.1786 0.0000 1.0000
vt 0.1786 1.0000 1.0000
vt 0.2500 0.0000 1.0000
vt 0.2500 1.0000 1.0000
vt 1.0000 0.0000 0.0000
vt 1.0000 1.0000 0.0000
vt 0.0000 1.0000 0.0000
vt 0.0000 0.0000 0.0000
# 22 texture coords

g Barracks
usemtl Standard
s 8
f 1/1/1 2/2/2 3/3/2 4/4/1 
f 2/2/2 5/5/3 6/6/3 3/3/2 
usemtl Team_Color
f 5/5/3 7/7/4 8/8/4 6/6/3 
usemtl Standard
f 7/7/4 9/9/5 10/10/5 8/8/4 
usemtl Team_Color
f 9/11/5 11/12/6 12/13/6 10/14/5 
usemtl Standard
f 11/12/6 13/15/7 14/16/7 12/13/6 
f 13/15/7 15/17/8 16/18/8 14/16/7 
s 1
f 15/17/9 1/1/9 4/4/9 16/18/9 
s off
f 15/17/10 13/15/10 11/12/10 2/2/10 
f 11/12/10 9/11/10 7/7/10 2/2/10 
f 7/7/11 5/5/11 2/2/11 
f 1/1/10 15/17/10 2/2/10 
f 4/4/12 3/3/12 17/3/12 18/4/12 
f 3/3/12 6/6/12 19/6/12 17/3/12 
f 6/6/12 8/8/12 20/8/12 19/6/12 
f 8/8/12 10/10/12 21/10/12 20/8/12 
f 10/14/12 12/13/12 22/13/12 21/14/12 
f 12/13/12 14/16/12 23/16/12 22/13/12 
f 14/16/12 16/18/12 24/18/12 23/16/12 
f 16/18/12 4/4/12 18/4/12 24/18/12 
f 18/4/13 17/3/13 25/3/13 26/4/13 
f 17/3/14 19/6/14 27/6/14 25/3/14 
f 19/6/15 20/8/15 28/8/15 27/6/15 
f 20/8/16 21/10/16 29/10/16 28/8/16 
f 21/14/17 22/13/17 30/13/17 29/14/17 
f 22/13/18 23/16/18 31/16/18 30/13/18 
f 23/16/19 24/18/19 32/18/19 31/16/19 
f 24/18/20 18/4/20 26/4/20 32/18/20 
f 27/6/12 28/8/12 29/10/12 26/4/12 
f 29/10/12 30/13/12 31/16/12 26/4/12 
f 31/16/12 32/18/12 26/4/12 
f 25/3/12 27/6/12 26/4/12 
s 8
f 33/1/1 34/2/2 35/3/2 36/4/1 
f 34/2/2 37/5/3 38/6/3 35/3/2 
usemtl Team_Color
f 37/5/3 39/7/4 40/8/4 38/6/3 
usemtl Standard
f 39/7/4 41/9/5 42/10/5 40/8/4 
usemtl Team_Color
f 41/11/5 43/12/6 44/13/6 42/14/5 
usemtl Standard
f 43/12/6 45/15/7 46/16/7 44/13/6 
f 45/15/7 47/17/8 48/18/8 46/16/7 
s 1
f 47/17/9 33/1/9 36/4/9 48/18/9 
s off
f 47/17/10 45/15/10 43/12/10 34/2/10 
f 43/12/10 41/11/10 39/7/10 34/2/10 
f 39/7/10 37/5/10 34/2/10 
f 33/1/10 47/17/10 34/2/10 
f 36/4/12 35/3/12 49/3/12 50/4/12 
f 35/3/12 38/6/12 51/6/12 49/3/12 
f 38/6/12 40/8/12 52/8/12 51/6/12 
f 40/8/12 42/10/12 53/10/12 52/8/12 
f 42/14/12 44/13/12 54/13/12 53/14/12 
f 44/13/12 46/16/12 55/16/12 54/13/12 
f 46/16/12 48/18/12 56/18/12 55/16/12 
f 48/18/12 36/4/12 50/4/12 56/18/12 
f 50/4/13 49/3/13 57/3/13 58/4/13 
f 49/3/14 51/6/14 59/6/14 57/3/14 
f 51/6/15 52/8/15 60/8/15 59/6/15 
f 52/8/16 53/10/16 61/10/16 60/8/16 
f 53/14/17 54/13/17 62/13/17 61/14/17 
f 54/13/18 55/16/18 63/16/18 62/13/18 
f 55/16/19 56/18/19 64/18/19 63/16/19 
f 56/18/20 50/4/20 58/4/20 64/18/20 
f 59/6/12 60/8/12 61/10/12 58/4/12 
f 61/10/12 62/13/12 63/16/12 58/4/12 
f 63/16/12 64/18/12 58/4/12 
f 57/3/12 59/6/12 58/4/12 
s 2
f 65/19/16 66/20/16 67/21/16 68/22/16 
s 4
f 69/22/20 70/19/20 71/20/20 72/21/20 
s 8
f 65/22/12 68/19/12 70/20/12 69/21/12 
s 16
f 68/22/21 67/19/21 71/20/21 70/21/21 
s 32
f 67/22/10 66/19/10 72/20/10 71/21/10 
s 64
f 66/22/22 65/19/22 69/20/22 72/21/22 
# 62 polygons - 8 triangles

