# 3ds Max Wavefront OBJ Exporter v0.97b - (c)2007 guruware
# File Created: 25.06.2015 19:43:44

mtllib Light_Tank_PH.mtl

#
# object Standard_Tank
#

v  -5.3453 1.4094 4.2858
v  -5.3453 1.4094 -11.3843
v  5.2397 1.4094 -11.3843
v  5.2397 1.4094 4.2858
v  -5.3453 5.9015 1.3733
v  5.2397 5.9015 1.3733
v  5.2397 5.9015 -10.4291
v  -5.3453 5.9015 -10.4291
v  5.2397 3.6071 4.2858
v  -5.3453 3.6071 4.2858
v  5.2397 5.3279 3.5577
v  -5.3453 5.3279 3.5577
v  -2.2645 7.3049 2.4048
v  2.1589 7.3049 2.4048
v  4.3433 7.3049 1.6766
v  5.0714 7.3049 -0.5078
v  5.0714 7.3049 -8.5480
v  4.3433 7.3049 -10.7324
v  2.1589 7.3049 -11.4606
v  -5.1770 7.3049 -8.5480
v  -2.2645 7.3049 -11.4606
v  -4.4489 7.3049 -10.7324
v  -4.4489 7.3049 1.6766
v  -5.1770 7.3049 -0.5078
v  -2.2645 6.3038 2.4048
v  2.1589 6.3038 2.4048
v  5.0714 6.3038 -0.5078
v  5.0714 6.3038 -8.5480
v  2.1589 6.3038 -11.4606
v  -2.2645 6.3038 -11.4606
v  -5.1770 6.3038 -8.5480
v  -5.1770 6.3038 -0.5078
v  -4.4489 6.3038 1.6766
v  4.3433 6.3038 1.6766
v  4.3433 6.3038 -10.7324
v  -4.4489 6.3038 -10.7324
v  1.1986 7.8611 -3.4052
v  0.9102 8.5574 -3.4052
v  0.9102 8.5574 10.1019
v  1.1986 7.8611 10.1019
v  0.2140 8.8458 -3.4052
v  0.2140 8.8458 10.1019
v  -0.4822 8.5574 -3.4052
v  -0.4822 8.5574 10.1019
v  -0.7706 7.8611 -3.4052
v  -0.7706 7.8611 10.1019
v  -0.4822 7.1649 -3.4052
v  -0.4822 7.1649 10.1019
v  0.2140 6.8765 -3.4052
v  0.2140 6.8765 10.1019
v  0.9102 7.1649 -3.4052
v  0.9102 7.1649 10.1019
v  1.1999 8.8470 10.1019
v  1.6082 7.8611 10.1019
v  0.2140 9.2554 10.1019
v  -0.7719 8.8470 10.1019
v  -1.1803 7.8611 10.1019
v  -0.7719 6.8752 10.1019
v  0.2140 6.4669 10.1019
v  1.1999 6.8752 10.1019
v  1.1999 8.8470 13.7027
v  1.6082 7.8611 13.7027
v  0.2140 9.2554 13.7027
v  -0.7719 8.8470 13.7027
v  -1.1803 7.8611 13.7027
v  -0.7719 6.8752 13.7027
v  0.2140 6.4669 13.7027
v  1.1999 6.8752 13.7027
v  0.7821 8.4293 13.7027
v  1.0175 7.8611 13.7027
v  0.2140 8.6646 13.7027
v  -0.3541 8.4293 13.7027
v  -0.5895 7.8611 13.7027
v  -0.3541 7.2930 13.7027
v  0.2140 7.0577 13.7027
v  0.7821 7.2930 13.7027
v  0.7821 8.4293 12.2262
v  1.0175 7.8611 12.2262
v  0.2140 8.6646 12.2262
v  -0.3541 8.4293 12.2261
v  -0.5895 7.8611 12.2262
v  -0.3541 7.2930 12.2261
v  0.2140 7.0577 12.2262
v  0.7821 7.2930 12.2262
v  0.2140 7.8611 12.2262
v  0.0213 11.4988 -4.2125
v  0.0213 11.1792 -5.9419
v  -0.6034 11.1792 -5.8251
v  -1.1437 11.1792 -5.4905
v  -1.5267 11.1792 -4.9833
v  -1.7007 11.1792 -4.3721
v  -1.6420 11.1792 -3.7393
v  -1.3587 11.1792 -3.1704
v  -0.8891 11.1792 -2.7422
v  -0.2965 11.1792 -2.5126
v  0.3391 11.1792 -2.5126
v  0.9317 11.1792 -2.7422
v  1.4014 11.1792 -3.1704
v  1.6846 11.1792 -3.7393
v  1.7433 11.1792 -4.3721
v  1.5693 11.1792 -4.9834
v  1.1864 11.1792 -5.4905
v  0.6460 11.1792 -5.8251
v  -1.1437 10.2634 -7.2198
v  0.0213 10.2634 -7.4376
v  -2.1514 10.2634 -6.5959
v  -2.8657 10.2634 -5.6501
v  -3.1900 10.2634 -4.5101
v  -3.0807 10.2634 -3.3299
v  -2.5524 10.2634 -2.2690
v  -1.6765 10.2634 -1.4705
v  -0.5713 10.2634 -1.0423
v  0.6139 10.2634 -1.0423
v  1.7191 10.2634 -1.4705
v  2.5950 10.2634 -2.2690
v  3.1233 10.2634 -3.3299
v  3.2327 10.2634 -4.5101
v  2.9083 10.2634 -5.6501
v  2.1941 10.2634 -6.5959
v  1.1863 10.2634 -7.2199
v  -1.5267 8.8752 -8.2085
v  0.0213 8.8752 -8.4978
v  -2.8657 8.8752 -7.3794
v  -3.8148 8.8752 -6.1227
v  -4.2457 8.8752 -4.6079
v  -4.1004 8.8752 -3.0398
v  -3.3985 8.8752 -1.6300
v  -2.2346 8.8752 -0.5691
v  -0.7661 8.8752 -0.0002
v  0.8087 8.8752 -0.0002
v  2.2772 8.8752 -0.5691
v  3.4411 8.8752 -1.6300
v  4.1430 8.8752 -3.0398
v  4.2884 8.8752 -4.6079
v  3.8574 8.8752 -6.1227
v  2.9083 8.8752 -7.3794
v  1.5693 8.8752 -8.2085
v  -1.7007 7.2021 -8.6574
v  0.0213 7.2021 -8.9793
v  -3.1900 7.2021 -7.7352
v  -4.2457 7.2021 -6.3373
v  -4.7251 7.2021 -4.6523
v  -4.5635 7.2021 -2.9080
v  -3.7827 7.2021 -1.3399
v  -2.4881 7.2021 -0.1597
v  -0.8546 7.2021 0.4731
v  0.8972 7.2021 0.4731
v  2.5307 7.2021 -0.1597
v  3.8253 7.2021 -1.3399
v  4.6061 7.2021 -2.9080
v  4.7678 7.2021 -4.6523
v  4.2884 7.2021 -6.3373
v  3.2327 7.2021 -7.7352
v  1.7433 7.2021 -8.6574
v  -5.4452 2.8956 6.4070
v  -5.4452 2.8956 -12.5503
v  -8.1824 2.8956 -12.5503
v  -8.1824 2.8956 6.4070
v  -5.4452 -0.0685 2.6548
v  -8.1824 -0.0685 2.6548
v  -8.1824 -0.0685 -8.7981
v  -5.4452 -0.0685 -8.7981
v  -8.1824 1.4454 6.4070
v  -5.4452 1.4454 6.4070
v  -8.1824 1.4454 -12.5503
v  -8.1824 0.3100 -11.6122
v  -8.1824 0.3100 5.4690
v  -5.4452 1.4454 -12.5503
v  -5.4452 0.3100 5.4690
v  -5.4452 0.3100 -11.6122
v  -8.6988 2.2053 7.5595
v  -8.6988 2.2053 -13.7027
v  -4.9288 2.2053 -13.7027
v  -4.9288 2.2053 7.5595
v  -8.6988 6.2878 3.3510
v  -4.9288 6.2878 3.3510
v  -4.9288 6.2878 -9.4943
v  -8.6988 6.2878 -9.4943
v  -4.9288 4.2027 7.5595
v  -8.6988 4.2027 7.5595
v  -4.9288 4.2027 -13.7027
v  -4.9288 5.7665 -12.6506
v  -4.9288 5.7665 6.5074
v  -8.6988 4.2027 -13.7027
v  -8.6988 5.7665 6.5074
v  -8.6988 5.7665 -12.6506
v  8.1824 2.8956 6.4070
v  8.1824 2.8956 -12.5503
v  5.4452 2.8956 -12.5503
v  5.4452 2.8956 6.4070
v  8.1824 -0.0685 2.6548
v  5.4452 -0.0685 2.6548
v  5.4452 -0.0685 -8.7981
v  8.1824 -0.0685 -8.7981
v  5.4452 1.4454 6.4070
v  8.1824 1.4454 6.4070
v  5.4452 1.4454 -12.5503
v  5.4452 0.3100 -11.6122
v  5.4452 0.3100 5.4690
v  8.1824 1.4454 -12.5503
v  8.1824 0.3100 5.4690
v  8.1824 0.3100 -11.6122
v  4.9288 2.2053 7.5595
v  4.9288 2.2053 -13.7027
v  8.6988 2.2053 -13.7027
v  8.6988 2.2053 7.5595
v  4.9288 6.2878 3.3510
v  8.6988 6.2878 3.3510
v  8.6988 6.2878 -9.4943
v  4.9288 6.2878 -9.4943
v  8.6988 4.2027 7.5595
v  4.9288 4.2027 7.5595
v  8.6988 4.2027 -13.7027
v  8.6988 5.7665 -12.6506
v  8.6988 5.7665 6.5074
v  4.9288 4.2027 -13.7027
v  4.9288 5.7665 6.5074
v  4.9288 5.7665 -12.6506
v  0.4209 1.6128 -11.4970
v  -0.0092 1.6128 -12.5353
v  -0.0092 6.6915 -12.5353
v  0.4209 6.6915 -11.4970
v  -1.0475 1.6128 -12.9654
v  -1.0475 6.6915 -12.9654
v  -2.0858 1.6128 -12.5353
v  -2.0858 6.6915 -12.5353
v  -2.5158 1.6128 -11.4970
v  -2.5158 6.6915 -11.4970
v  -2.0858 1.6128 -10.4587
v  -2.0858 6.6915 -10.4587
v  -1.0475 1.6128 -10.0287
v  -1.0475 6.6915 -10.0287
v  -0.0092 1.6128 -10.4587
v  -0.0092 6.6915 -10.4587
v  3.4066 1.6128 -11.4970
v  2.9765 1.6128 -12.5353
v  2.9765 6.6915 -12.5353
v  3.4066 6.6915 -11.4970
v  1.9382 1.6128 -12.9654
v  1.9382 6.6915 -12.9654
v  0.8999 1.6128 -12.5353
v  0.8999 6.6915 -12.5353
v  0.4699 1.6128 -11.4970
v  0.4699 6.6915 -11.4970
v  0.8999 1.6128 -10.4587
v  0.8999 6.6915 -10.4587
v  1.9382 1.6128 -10.0287
v  1.9382 6.6915 -10.0287
v  2.9765 1.6128 -10.4587
v  2.9765 6.6915 -10.4587
# 250 vertices

vn 0.0000 -1.0000 -0.0000
vn 0.0000 1.0000 -0.0000
vn 0.0000 0.0000 1.0000
vn 1.0000 -0.0000 -0.0000
vn 1.0000 0.0000 -0.0000
vn 0.0000 0.2080 -0.9781
vn -1.0000 -0.0000 -0.0000
vn -1.0000 0.0000 -0.0000
vn 0.0000 0.9672 0.2540
vn 0.0000 0.3897 0.9209
vn 0.0000 0.0000 -1.0000
vn -0.3162 0.0000 0.9487
vn 0.9487 0.0000 0.3162
vn 0.3162 0.0000 -0.9487
vn -0.9487 0.0000 -0.3162
vn -0.9487 0.0000 0.3162
vn 0.3162 0.0000 0.9487
vn 0.9487 0.0000 -0.3162
vn -0.3162 0.0000 -0.9487
vn 1.0000 0.0000 0.0000
vn 0.7071 0.7071 0.0000
vn 0.0000 1.0000 0.0000
vn -0.0000 1.0000 -0.0000
vn -0.7071 0.7071 -0.0000
vn -0.7071 -0.7071 -0.0000
vn -0.0000 -1.0000 -0.0000
vn 0.7071 -0.7071 0.0000
vn 0.7071 -0.7071 -0.0000
vn 0.0000 -0.0000 -1.0000
vn 0.9239 0.3827 0.0000
vn 0.3827 0.9239 0.0000
vn -0.3827 0.9239 -0.0000
vn -0.9239 0.3827 -0.0000
vn -0.9239 -0.3827 -0.0000
vn -0.3827 -0.9239 -0.0000
vn 0.3827 -0.9239 0.0000
vn 0.9239 -0.3827 0.0000
vn 0.0000 -0.0000 1.0000
vn -0.0000 0.0000 1.0000
vn -0.0000 -0.0000 1.0000
vn -0.9239 -0.3827 0.0000
vn -0.3827 -0.9239 0.0000
vn 0.3827 -0.9239 -0.0000
vn 0.9239 -0.3827 -0.0000
vn 0.9239 0.3827 -0.0000
vn 0.3827 0.9239 -0.0000
vn -0.3827 0.9239 0.0000
vn -0.9239 0.3827 0.0000
vn -0.0000 0.9265 -0.3763
vn -0.1360 0.9265 -0.3509
vn -0.2535 0.9265 -0.2781
vn -0.3369 0.9265 -0.1677
vn -0.3747 0.9265 -0.0347
vn -0.3620 0.9265 0.1030
vn -0.3003 0.9265 0.2268
vn -0.1981 0.9265 0.3200
vn -0.0692 0.9265 0.3699
vn 0.0692 0.9265 0.3699
vn 0.1981 0.9265 0.3200
vn 0.3003 0.9265 0.2268
vn 0.3620 0.9265 0.1030
vn 0.3747 0.9265 -0.0347
vn 0.3369 0.9265 -0.1678
vn 0.2535 0.9265 -0.2781
vn 0.1359 0.9265 -0.3509
vn -0.2461 0.7319 -0.6353
vn -0.0000 0.7319 -0.6814
vn -0.4590 0.7319 -0.5035
vn -0.6099 0.7319 -0.3037
vn -0.6785 0.7319 -0.0629
vn -0.6553 0.7319 0.1865
vn -0.5437 0.7319 0.4106
vn -0.3587 0.7319 0.5793
vn -0.1252 0.7319 0.6698
vn 0.1252 0.7319 0.6698
vn 0.3587 0.7319 0.5793
vn 0.5437 0.7319 0.4106
vn 0.6553 0.7319 0.1865
vn 0.6785 0.7319 -0.0629
vn 0.6099 0.7319 -0.3037
vn 0.4590 0.7319 -0.5035
vn 0.2461 0.7319 -0.6353
vn -0.3242 0.4410 -0.8369
vn -0.0000 0.4410 -0.8975
vn -0.6046 0.4410 -0.6633
vn -0.8034 0.4410 -0.4000
vn -0.8937 0.4410 -0.0828
vn -0.8632 0.4410 0.2456
vn -0.7162 0.4410 0.5409
vn -0.4725 0.4410 0.7631
vn -0.1649 0.4410 0.8822
vn 0.1649 0.4410 0.8822
vn 0.4725 0.4410 0.7631
vn 0.7162 0.4410 0.5409
vn 0.8632 0.4410 0.2456
vn 0.8937 0.4410 -0.0828
vn 0.8034 0.4410 -0.4000
vn 0.6046 0.4410 -0.6633
vn 0.3242 0.4410 -0.8369
vn -0.3472 0.2765 -0.8961
vn -0.0000 0.2765 -0.9610
vn -0.6474 0.2765 -0.7102
vn -0.8603 0.2765 -0.4284
vn -0.9569 0.2765 -0.0887
vn -0.9243 0.2765 0.2630
vn -0.7669 0.2765 0.5791
vn -0.5059 0.2765 0.8171
vn -0.1766 0.2765 0.9446
vn 0.1766 0.2765 0.9446
vn 0.5059 0.2765 0.8171
vn 0.7669 0.2765 0.5791
vn 0.9243 0.2765 0.2630
vn 0.9569 0.2765 -0.0887
vn 0.8603 0.2765 -0.4284
vn 0.6474 0.2765 -0.7102
vn 0.3472 0.2765 -0.8961
vn -1.0000 -0.0000 0.0000
vn 0.0000 -0.9911 0.1333
vn 0.0000 -0.6369 0.7709
vn 0.0000 -0.9911 -0.1333
vn 0.0000 -0.6369 -0.7709
vn 0.0000 0.9866 0.1630
vn 0.0000 0.5582 0.8297
vn 0.0000 0.9866 -0.1630
vn 0.0000 0.5582 -0.8297
vn -1.0000 0.0000 0.0000
vn 0.7071 0.0000 -0.7071
vn -0.0000 0.0000 -1.0000
vn -0.7071 0.0000 -0.7071
vn -0.7071 0.0000 0.7071
vn 0.7071 0.0000 0.7071
# 131 vertex normals

vt 1.0000 0.0000 0.0000
vt 1.0000 1.0000 0.0000
vt 0.0000 1.0000 0.0000
vt 0.0000 0.0000 0.0000
vt 0.0000 0.1979 0.0000
vt 1.0000 0.1979 0.0000
vt 1.0000 0.4892 0.0000
vt 0.0000 0.4892 0.0000
vt 0.1979 1.0000 0.0000
vt 0.0495 0.8723 0.0000
vt 0.9505 0.8723 0.0000
vt 0.8021 1.0000 0.0000
vt 1.0000 0.7932 0.0000
vt 1.0000 1.0972 0.0000
vt 0.0000 1.0972 0.0000
vt 0.0000 0.7932 0.0000
vt 0.2842 0.1979 0.0000
vt 0.7158 0.1979 0.0000
vt 0.9290 0.2401 0.0000
vt 1.0000 0.3664 0.0000
vt 1.0000 0.8315 0.0000
vt 0.9290 0.9579 0.0000
vt 0.7158 1.0000 0.0000
vt 0.0000 0.8315 0.0000
vt 0.2842 1.0000 0.0000
vt 0.0710 0.9579 0.0000
vt 0.0710 0.2401 0.0000
vt 0.0000 0.3664 0.0000
vt 0.1421 0.2822 0.0000
vt 0.8579 0.2822 0.0000
vt 0.8579 0.9158 0.0000
vt 0.1421 0.9158 0.0000
vt 0.7500 0.0000 1.0000
vt 0.8750 0.0000 1.0000
vt 0.8750 1.0000 1.0000
vt 0.7500 1.0000 1.0000
vt 1.0000 0.0000 1.0000
vt 1.0000 1.0000 1.0000
vt 0.0000 0.0000 1.0000
vt 0.1250 0.0000 1.0000
vt 0.1250 1.0000 1.0000
vt 0.0000 1.0000 1.0000
vt 0.2500 0.0000 1.0000
vt 0.2500 1.0000 1.0000
vt 0.3750 0.0000 1.0000
vt 0.3750 1.0000 1.0000
vt 0.5000 0.0000 1.0000
vt 0.5000 1.0000 1.0000
vt 0.6250 0.0000 1.0000
vt 0.6250 1.0000 1.0000
vt 0.0625 1.0000 1.0000
vt 0.0000 0.8824 0.0000
vt 0.0588 0.8824 0.0000
vt 0.0588 1.0000 0.0000
vt 0.1176 0.8824 0.0000
vt 0.1176 1.0000 0.0000
vt 0.1765 0.8824 0.0000
vt 0.1765 1.0000 0.0000
vt 0.2353 0.8824 0.0000
vt 0.2353 1.0000 0.0000
vt 0.2941 0.8824 0.0000
vt 0.2941 1.0000 0.0000
vt 0.3529 0.8824 0.0000
vt 0.3529 1.0000 0.0000
vt 0.4118 0.8824 0.0000
vt 0.4118 1.0000 0.0000
vt 0.4706 0.8824 0.0000
vt 0.4706 1.0000 0.0000
vt 0.5294 0.8824 0.0000
vt 0.5294 1.0000 0.0000
vt 0.5882 0.8824 0.0000
vt 0.5882 1.0000 0.0000
vt 0.6471 0.8824 0.0000
vt 0.6471 1.0000 0.0000
vt 0.7059 0.8824 0.0000
vt 0.7059 1.0000 0.0000
vt 0.7647 0.8824 0.0000
vt 0.7647 1.0000 0.0000
vt 0.8235 0.8824 0.0000
vt 0.8235 1.0000 0.0000
vt 0.8824 0.8824 0.0000
vt 0.8824 1.0000 0.0000
vt 0.9412 0.8824 0.0000
vt 0.9412 1.0000 0.0000
vt 1.0000 0.8824 0.0000
vt 0.0588 0.7647 0.0000
vt 0.0000 0.7647 0.0000
vt 0.1176 0.7647 0.0000
vt 0.1765 0.7647 0.0000
vt 0.2353 0.7647 0.0000
vt 0.2941 0.7647 0.0000
vt 0.3529 0.7647 0.0000
vt 0.4118 0.7647 0.0000
vt 0.4706 0.7647 0.0000
vt 0.5294 0.7647 0.0000
vt 0.5882 0.7647 0.0000
vt 0.6471 0.7647 0.0000
vt 0.7059 0.7647 0.0000
vt 0.7647 0.7647 0.0000
vt 0.8235 0.7647 0.0000
vt 0.8824 0.7647 0.0000
vt 0.9412 0.7647 0.0000
vt 1.0000 0.7647 0.0000
vt 0.0588 0.6471 0.0000
vt 0.0000 0.6471 0.0000
vt 0.1176 0.6471 0.0000
vt 0.1765 0.6471 0.0000
vt 0.2353 0.6471 0.0000
vt 0.2941 0.6471 0.0000
vt 0.3529 0.6471 0.0000
vt 0.4118 0.6471 0.0000
vt 0.4706 0.6471 0.0000
vt 0.5294 0.6471 0.0000
vt 0.5882 0.6471 0.0000
vt 0.6471 0.6471 0.0000
vt 0.7059 0.6471 0.0000
vt 0.7647 0.6471 0.0000
vt 0.8235 0.6471 0.0000
vt 0.8824 0.6471 0.0000
vt 0.9412 0.6471 0.0000
vt 1.0000 0.6471 0.0000
vt 0.0588 0.5294 0.0000
vt 0.0000 0.5294 0.0000
vt 0.1176 0.5294 0.0000
vt 0.1765 0.5294 0.0000
vt 0.2353 0.5294 0.0000
vt 0.2941 0.5294 0.0000
vt 0.3529 0.5294 0.0000
vt 0.4118 0.5294 0.0000
vt 0.4706 0.5294 0.0000
vt 0.5294 0.5294 0.0000
vt 0.5882 0.5294 0.0000
vt 0.6471 0.5294 0.0000
vt 0.7059 0.5294 0.0000
vt 0.7647 0.5294 0.0000
vt 0.8235 0.5294 0.0000
vt 0.8824 0.5294 0.0000
vt 0.9412 0.5294 0.0000
vt 1.0000 0.5294 0.0000
vt 1.0000 0.8021 0.0000
vt 0.0000 0.8021 0.0000
vt 1.0000 0.7740 0.0000
vt 1.0000 1.0588 0.0000
vt 0.0000 1.0588 0.0000
vt 0.0000 0.7740 0.0000
vt 1.0000 0.5000 -0.2500
vt 0.8536 0.1464 -0.2500
vt 0.5000 0.0000 -0.2500
vt 0.5000 1.0000 -0.2500
vt 0.1464 0.1464 -0.2500
vt 0.0000 0.5000 -0.2500
vt 0.1464 0.8536 -0.2500
vt 0.8536 0.8536 -0.2500
vt 0.1464 0.8536 0.2500
vt 0.0000 0.5000 0.2500
vt 0.1464 0.1464 0.2500
vt 0.8536 0.8536 0.2500
vt 0.5000 0.0000 0.2500
vt 0.8536 0.1464 0.2500
vt 1.0000 0.5000 0.2500
vt 0.5000 1.0000 0.2500
# 161 texture coords

g Standard_Tank
usemtl Tank_Standard_Mat
s 2
f 1/1/1 2/2/1 3/3/1 4/4/1 
s 4
f 5/5/2 6/6/2 7/2/2 8/3/2 
s 8
f 1/4/3 4/1/3 9/7/3 10/8/3 
s 16
f 4/4/4 3/1/4 7/2/4 9/8/5 
f 7/2/4 6/9/5 11/10/5 9/8/5 
s 32
f 3/4/6 2/1/6 8/2/6 7/3/6 
s 64
f 1/1/7 10/7/8 12/11/8 5/12/7 
f 2/4/7 1/1/7 5/12/7 8/3/7 
s off
f 11/13/9 6/14/9 5/15/9 12/16/9 
f 9/7/10 11/13/10 12/16/10 10/8/10 
s 4
f 13/17/2 14/18/2 15/19/2 16/20/2 
f 16/20/2 17/21/2 18/22/2 19/23/2 
f 13/17/2 16/20/2 19/23/2 20/24/2 
f 19/23/2 21/25/2 22/26/2 20/24/2 
f 23/27/2 13/17/2 20/24/2 24/28/2 
s off
f 14/18/3 13/17/3 25/17/3 26/18/3 
f 17/21/5 16/20/5 27/20/5 28/21/5 
f 21/25/11 19/23/11 29/23/11 30/25/11 
f 24/28/8 20/24/8 31/24/8 32/28/8 
f 33/29/12 25/17/12 13/17/12 23/27/12 
f 34/30/13 27/20/13 16/20/13 15/19/13 
f 35/31/14 29/23/14 19/23/14 18/22/14 
f 36/32/15 31/24/15 20/24/15 22/26/15 
f 32/28/16 33/29/16 23/27/16 24/28/16 
f 26/18/17 34/30/17 15/19/17 14/18/17 
f 28/21/18 35/31/18 18/22/18 17/21/18 
f 30/25/19 36/32/19 22/26/19 21/25/19 
s 8
f 37/33/20 38/34/21 39/35/21 40/36/20 
f 38/34/21 41/37/22 42/38/23 39/35/21 
f 41/39/22 43/40/24 44/41/24 42/42/23 
f 43/40/24 45/43/8 46/44/8 44/41/24 
f 45/43/8 47/45/25 48/46/25 46/44/8 
f 47/45/25 49/47/1 50/48/26 48/46/25 
f 49/47/1 51/49/27 52/50/28 50/48/26 
f 51/49/27 37/33/20 40/36/20 52/50/28 
s off
f 40/36/11 39/35/11 53/35/11 54/36/11 
f 39/35/11 42/38/11 55/38/11 53/35/11 
f 42/42/29 44/41/29 56/41/29 55/42/29 
f 44/41/11 46/44/11 57/44/11 56/41/11 
f 46/44/29 48/46/29 58/46/29 57/44/29 
f 48/46/11 50/48/11 59/48/11 58/46/11 
f 50/48/29 52/50/29 60/50/29 59/48/29 
f 52/50/29 40/36/29 54/36/29 60/50/29 
usemtl Team_Color
f 54/36/30 53/35/30 61/35/30 62/36/30 
f 53/35/31 55/38/31 63/38/31 61/35/31 
f 55/42/32 56/41/32 64/41/32 63/42/32 
f 56/41/33 57/44/33 65/44/33 64/41/33 
f 57/44/34 58/46/34 66/46/34 65/44/34 
f 58/46/35 59/48/35 67/48/35 66/46/35 
f 59/48/36 60/50/36 68/50/36 67/48/36 
f 60/50/37 54/36/37 62/36/37 68/50/37 
usemtl Tank_Standard_Mat
f 62/36/38 61/35/38 69/35/38 70/36/38 
f 61/35/39 63/38/39 71/38/39 69/35/39 
f 63/42/3 64/41/3 72/41/3 71/42/3 
f 64/41/39 65/44/39 73/44/39 72/41/39 
f 65/44/40 66/46/40 74/46/40 73/44/40 
f 66/46/38 67/48/38 75/48/38 74/46/38 
f 67/48/40 68/50/40 76/50/40 75/48/40 
f 68/50/3 62/36/3 70/36/3 76/50/3 
usemtl Team_Color
f 70/36/41 69/35/41 77/35/41 78/36/41 
f 69/35/42 71/38/42 79/38/42 77/35/42 
f 71/42/43 72/41/43 80/41/43 79/42/43 
f 72/41/44 73/44/44 81/44/44 80/41/44 
f 73/44/45 74/46/45 82/46/45 81/44/45 
f 74/46/46 75/48/46 83/48/46 82/46/46 
f 75/48/47 76/50/47 84/50/47 83/48/47 
f 76/50/48 70/36/48 78/36/48 84/50/48 
f 78/36/38 77/35/38 85/50/38 
f 77/35/3 79/38/3 85/50/3 
f 79/42/39 80/41/39 85/51/39 
f 80/41/39 81/44/39 85/51/39 
f 81/44/40 82/46/40 85/50/40 
f 82/46/40 83/48/40 85/50/40 
f 83/48/38 84/50/38 85/50/38 
f 84/50/3 78/36/3 85/50/3 
usemtl Tank_Standard_Mat
s 1
f 86/3/2 87/52/49 88/53/50 
f 86/54/2 88/53/50 89/55/51 
f 86/56/2 89/55/51 90/57/52 
f 86/58/2 90/57/52 91/59/53 
f 86/60/2 91/59/53 92/61/54 
f 86/62/2 92/61/54 93/63/55 
f 86/64/2 93/63/55 94/65/56 
f 86/66/2 94/65/56 95/67/57 
f 86/68/2 95/67/57 96/69/58 
f 86/70/2 96/69/58 97/71/59 
f 86/72/2 97/71/59 98/73/60 
f 86/74/2 98/73/60 99/75/61 
f 86/76/2 99/75/61 100/77/62 
f 86/78/2 100/77/62 101/79/63 
f 86/80/2 101/79/63 102/81/64 
f 86/82/2 102/81/64 103/83/65 
f 86/84/2 103/83/65 87/85/49 
f 104/86/66 88/53/50 87/52/49 105/87/67 
f 106/88/68 89/55/51 88/53/50 104/86/66 
f 107/89/69 90/57/52 89/55/51 106/88/68 
f 108/90/70 91/59/53 90/57/52 107/89/69 
f 109/91/71 92/61/54 91/59/53 108/90/70 
f 110/92/72 93/63/55 92/61/54 109/91/71 
f 111/93/73 94/65/56 93/63/55 110/92/72 
f 112/94/74 95/67/57 94/65/56 111/93/73 
f 113/95/75 96/69/58 95/67/57 112/94/74 
f 114/96/76 97/71/59 96/69/58 113/95/75 
f 115/97/77 98/73/60 97/71/59 114/96/76 
f 116/98/78 99/75/61 98/73/60 115/97/77 
f 117/99/79 100/77/62 99/75/61 116/98/78 
f 118/100/80 101/79/63 100/77/62 117/99/79 
f 119/101/81 102/81/64 101/79/63 118/100/80 
f 120/102/82 103/83/65 102/81/64 119/101/81 
f 105/103/67 87/85/49 103/83/65 120/102/82 
f 121/104/83 104/86/66 105/87/67 122/105/84 
f 123/106/85 106/88/68 104/86/66 121/104/83 
f 124/107/86 107/89/69 106/88/68 123/106/85 
f 125/108/87 108/90/70 107/89/69 124/107/86 
f 126/109/88 109/91/71 108/90/70 125/108/87 
f 127/110/89 110/92/72 109/91/71 126/109/88 
f 128/111/90 111/93/73 110/92/72 127/110/89 
f 129/112/91 112/94/74 111/93/73 128/111/90 
f 130/113/92 113/95/75 112/94/74 129/112/91 
f 131/114/93 114/96/76 113/95/75 130/113/92 
f 132/115/94 115/97/77 114/96/76 131/114/93 
f 133/116/95 116/98/78 115/97/77 132/115/94 
f 134/117/96 117/99/79 116/98/78 133/116/95 
f 135/118/97 118/100/80 117/99/79 134/117/96 
f 136/119/98 119/101/81 118/100/80 135/118/97 
f 137/120/99 120/102/82 119/101/81 136/119/98 
f 122/121/84 105/103/67 120/102/82 137/120/99 
f 138/122/100 121/104/83 122/105/84 139/123/101 
f 140/124/102 123/106/85 121/104/83 138/122/100 
f 141/125/103 124/107/86 123/106/85 140/124/102 
f 142/126/104 125/108/87 124/107/86 141/125/103 
f 143/127/105 126/109/88 125/108/87 142/126/104 
f 144/128/106 127/110/89 126/109/88 143/127/105 
f 145/129/107 128/111/90 127/110/89 144/128/106 
f 146/130/108 129/112/91 128/111/90 145/129/107 
f 147/131/109 130/113/92 129/112/91 146/130/108 
f 148/132/110 131/114/93 130/113/92 147/131/109 
f 149/133/111 132/115/94 131/114/93 148/132/110 
f 150/134/112 133/116/95 132/115/94 149/133/111 
f 151/135/113 134/117/96 133/116/95 150/134/112 
f 152/136/114 135/118/97 134/117/96 151/135/113 
f 153/137/115 136/119/98 135/118/97 152/136/114 
f 154/138/116 137/120/99 136/119/98 153/137/115 
f 139/139/101 122/121/84 137/120/99 154/138/116 
s 2
f 155/1/23 156/2/23 157/3/23 158/4/23 
s 4
f 159/5/1 160/6/1 161/140/1 162/141/1 
s 8
f 155/4/3 158/1/3 163/7/3 164/8/3 
s 16
f 157/1/7 165/7/7 166/11/7 161/12/7 
f 158/4/117 157/1/7 161/12/7 163/8/117 
f 161/12/7 160/9/8 167/10/8 163/8/117 
s 32
f 157/4/11 156/1/11 168/7/11 165/8/11 
s 64
f 155/1/5 164/7/5 169/11/5 159/12/5 
f 156/4/20 155/1/5 159/12/5 168/8/20 
f 159/12/5 162/9/5 170/10/5 168/8/20 
s off
f 167/13/118 160/14/118 159/15/118 169/16/118 
f 163/7/119 167/13/119 169/16/119 164/8/119 
f 170/142/120 162/143/120 161/144/120 166/145/120 
f 168/7/121 170/142/121 166/145/121 165/8/121 
s 2
f 171/1/1 172/2/1 173/3/1 174/4/1 
usemtl Team_Color
s 4
f 175/5/2 176/6/2 177/140/2 178/141/2 
usemtl Tank_Standard_Mat
s 8
f 171/4/3 174/1/3 179/7/3 180/8/3 
s 16
f 173/1/5 181/7/5 182/11/5 177/12/5 
f 174/4/5 173/1/5 177/12/5 179/8/5 
f 177/12/5 176/9/5 183/10/5 179/8/5 
s 32
f 173/4/11 172/1/11 184/7/11 181/8/11 
s 64
f 171/1/8 180/7/8 185/11/8 175/12/8 
f 172/4/8 171/1/8 175/12/8 184/8/8 
f 175/12/8 178/9/8 186/10/8 184/8/8 
s off
f 183/13/122 176/14/122 175/15/122 185/16/122 
f 179/7/123 183/13/123 185/16/123 180/8/123 
f 186/142/124 178/143/124 177/144/124 182/145/124 
f 184/7/125 186/142/125 182/145/125 181/8/125 
s 2
f 187/1/23 188/2/23 189/3/23 190/4/23 
s 4
f 191/5/1 192/6/1 193/140/1 194/141/1 
s 8
f 187/4/3 190/1/3 195/7/3 196/8/3 
s 16
f 189/1/117 197/7/126 198/11/117 193/12/7 
f 190/4/7 189/1/117 193/12/7 195/8/7 
f 193/12/7 192/9/8 199/10/117 195/8/7 
s 32
f 189/4/11 188/1/11 200/7/11 197/8/11 
s 64
f 187/1/5 196/7/5 201/11/5 191/12/5 
f 188/4/5 187/1/5 191/12/5 200/8/5 
f 191/12/5 194/9/5 202/10/5 200/8/5 
s off
f 199/13/118 192/14/118 191/15/118 201/16/118 
f 195/7/119 199/13/119 201/16/119 196/8/119 
f 202/142/120 194/143/120 193/144/120 198/145/120 
f 200/7/121 202/142/121 198/145/121 197/8/121 
s 2
f 203/1/1 204/2/1 205/3/1 206/4/1 
usemtl Team_Color
s 4
f 207/5/2 208/6/2 209/140/2 210/141/2 
usemtl Tank_Standard_Mat
s 8
f 203/4/3 206/1/3 211/7/3 212/8/3 
s 16
f 205/1/5 213/7/5 214/11/5 209/12/5 
f 206/4/5 205/1/5 209/12/5 211/8/5 
f 209/12/5 208/9/5 215/10/5 211/8/5 
s 32
f 205/4/11 204/1/11 216/7/11 213/8/11 
s 64
f 203/1/8 212/7/8 217/11/8 207/12/126 
f 204/4/126 203/1/8 207/12/126 216/8/126 
f 207/12/126 210/9/8 218/10/8 216/8/126 
s off
f 215/13/122 208/14/122 207/15/122 217/16/122 
f 211/7/123 215/13/123 217/16/123 212/8/123 
f 218/142/124 210/143/124 209/144/124 214/145/124 
f 216/7/125 218/142/125 214/145/125 213/8/125 
s 8
f 219/33/20 220/34/127 221/35/127 222/36/20 
f 220/34/127 223/37/128 224/38/128 221/35/127 
f 223/39/128 225/40/129 226/41/129 224/42/128 
f 225/40/129 227/43/8 228/44/8 226/41/129 
f 227/43/8 229/45/130 230/46/130 228/44/8 
f 229/45/130 231/47/3 232/48/3 230/46/130 
f 231/47/3 233/49/131 234/50/131 232/48/3 
f 233/49/131 219/33/20 222/36/20 234/50/131 
s 1
f 231/146/1 229/147/1 227/148/1 219/149/1 
f 227/148/1 225/150/1 223/151/1 219/149/1 
f 223/151/1 220/152/1 219/149/1 
f 233/153/1 231/146/1 219/149/1 
f 221/154/2 224/155/2 226/156/2 234/157/2 
f 226/156/2 228/158/2 230/159/2 234/157/2 
f 230/159/2 232/160/2 234/157/2 
f 222/161/2 221/154/2 234/157/2 
s 8
f 235/33/5 236/34/127 237/35/127 238/36/20 
f 236/34/127 239/37/128 240/38/128 237/35/127 
f 239/39/128 241/40/129 242/41/129 240/42/128 
f 241/40/129 243/43/126 244/44/126 242/41/129 
f 243/43/126 245/45/130 246/46/130 244/44/126 
f 245/45/130 247/47/3 248/48/3 246/46/130 
f 247/47/3 249/49/131 250/50/131 248/48/3 
f 249/49/131 235/33/5 238/36/20 250/50/131 
s 1
f 247/146/1 245/147/1 243/148/1 235/149/1 
f 243/148/1 241/150/1 239/151/1 235/149/1 
f 239/151/1 236/152/1 235/149/1 
f 249/153/1 247/146/1 235/149/1 
f 237/154/2 240/155/2 242/156/2 250/157/2 
f 242/156/2 244/158/2 246/159/2 250/157/2 
f 246/159/2 248/160/2 250/157/2 
f 238/161/2 237/154/2 250/157/2 
# 198 polygons - 33 triangles

