# 3ds Max Wavefront OBJ Exporter v0.97b - (c)2007 guruware
# File Created: 25.06.2015 19:47:06

mtllib War_Factory_PH.mtl

#
# object War_Factory
#

v  -48.0373 0.0000 39.7834
v  -48.0373 0.0000 -39.7834
v  48.0372 0.0000 -39.7834
v  48.0372 0.0000 39.7834
v  -48.0373 3.1372 39.7834
v  48.0372 3.1372 39.7834
v  48.0372 3.1372 -39.7834
v  -48.0373 3.1372 -39.7834
v  -9.9732 0.0000 6.6143
v  -9.9732 0.0000 -20.4430
v  43.7634 0.0000 -20.4430
v  43.7634 0.0000 6.6143
v  -9.9732 22.5338 6.6143
v  43.7634 22.5338 6.6143
v  43.7634 22.5338 -20.4430
v  -9.9732 22.5338 -20.4430
v  -45.7322 1.8777 29.3392
v  -45.7322 1.8777 -29.3392
v  1.8631 1.8777 -29.3392
v  1.8631 1.8777 29.3392
v  -42.5121 25.2026 29.3392
v  -1.3570 25.2026 29.3392
v  -1.3570 25.2026 -29.3392
v  -42.5121 25.2026 -29.3392
v  -37.0451 1.7296 25.2252
v  -6.8240 1.7296 25.2252
v  -6.8240 18.2585 25.2252
v  -37.0451 18.2585 25.2252
v  1.8631 21.4599 -29.3392
v  1.8631 21.4599 29.3392
v  -45.7322 21.4599 -29.3392
v  -45.7322 21.4599 29.3392
v  -6.8240 1.7296 29.3392
v  -37.0451 1.7296 29.3392
v  -0.7901 23.0818 29.3392
v  -6.8240 18.2585 29.3392
v  -43.0790 23.0818 29.3392
v  -37.0451 18.2585 29.3392
# 38 vertices

vn 0.0000 -1.0000 -0.0000
vn 0.0000 1.0000 -0.0000
vn 0.0000 0.0000 1.0000
vn 1.0000 0.0000 -0.0000
vn 0.0000 0.0000 -1.0000
vn -1.0000 0.0000 -0.0000
vn 0.7580 0.6522 -0.0000
vn -0.7580 0.6522 -0.0000
# 8 vertex normals

vt 1.0000 0.0000 0.0000
vt 1.0000 1.0000 0.0000
vt 0.0000 1.0000 0.0000
vt 0.0000 0.0000 0.0000
vt 0.0677 0.0000 0.0000
vt 0.9323 0.0000 0.0000
vt 0.9323 1.0000 0.0000
vt 0.0677 1.0000 0.0000
vt 1.0000 0.8395 0.0000
vt 0.0000 0.8395 0.0000
vt -0.0000 0.9942 0.0000
vt 1.0000 0.9942 0.0000
vt 0.0000 0.9942 0.0000
# 13 texture coords

g War_Factory
usemtl Standard
s 2
f 1/1/1 2/2/1 3/3/1 4/4/1 
s 4
f 5/4/2 6/1/2 7/2/2 8/3/2 
s 8
f 1/4/3 4/1/3 6/2/3 5/3/3 
s 16
f 4/4/4 3/1/4 7/2/4 6/3/4 
s 32
f 3/4/5 2/1/5 8/2/5 7/3/5 
s 64
f 2/4/6 1/1/6 5/2/6 8/3/6 
s 2
f 9/1/1 10/2/1 11/3/1 12/4/1 
usemtl Team_Color
s 4
f 13/4/2 14/1/2 15/2/2 16/3/2 
usemtl Standard
s 8
f 9/4/3 12/1/3 14/2/3 13/3/3 
s 16
f 12/4/4 11/1/4 15/2/4 14/3/4 
s 32
f 11/4/5 10/1/5 16/2/5 15/3/5 
s 64
f 10/4/6 9/1/6 13/2/6 16/3/6 
s 2
f 17/1/1 18/2/1 19/3/1 20/4/1 
s 4
f 21/5/2 22/6/2 23/7/2 24/8/2 
s 8
f 25/4/3 26/1/3 27/2/3 28/3/3 
s 16
f 20/4/4 19/1/4 29/9/4 30/10/4 
s 32
f 18/1/5 31/9/5 24/7/5 19/4/5 
f 24/7/5 23/8/5 29/10/5 19/4/5 
s 64
f 18/4/6 17/1/6 32/9/6 31/10/6 
s off
f 17/4/5 20/1/5 33/1/5 34/4/5 
f 20/1/3 30/9/3 35/2/3 36/2/3 
f 20/1/3 36/2/3 33/1/3 
f 22/7/3 21/8/3 37/3/3 38/3/3 
f 22/7/3 38/3/3 36/2/3 35/2/3 
f 32/10/3 17/4/3 34/4/3 38/3/3 
f 37/3/3 32/10/3 38/3/3 
f 34/4/2 33/1/2 26/1/2 25/4/2 
f 33/1/6 36/2/6 27/2/6 26/1/6 
f 36/2/1 38/3/1 28/3/1 27/2/1 
f 38/3/4 34/4/4 25/4/4 28/3/4 
f 32/10/3 37/3/3 21/8/3 
f 30/9/3 22/7/3 35/2/3 
usemtl Team_Color
f 22/11/7 30/10/7 29/9/7 23/12/7 
f 24/13/8 31/10/8 32/9/8 21/12/8 
# 30 polygons - 4 triangles

